<mxfile host="app.diagrams.net" agent="Mozilla/5.0 (Windows NT 6.1; Win64; x64) AppleWebKit/537.36 (KHTML, like Gecko) Chrome/103.0.0.0 Safari/537.36" version="24.7.16">
  <diagram id="ek8o2xBYvwKBRTStbbeG" name="PÃ¡gina-1">
    <mxGraphModel dx="466" dy="595" grid="1" gridSize="10" guides="1" tooltips="1" connect="1" arrows="1" fold="1" page="1" pageScale="1" pageWidth="827" pageHeight="1169" math="0" shadow="1">
      <root>
        <mxCell id="0" />
        <mxCell id="1" parent="0" />
        <mxCell id="99QW-NOI-0znvqQwYTCD-3" style="edgeStyle=orthogonalEdgeStyle;rounded=0;orthogonalLoop=1;jettySize=auto;html=1;exitX=0.5;exitY=1;exitDx=0;exitDy=0;" edge="1" parent="1" source="99QW-NOI-0znvqQwYTCD-1" target="99QW-NOI-0znvqQwYTCD-2">
          <mxGeometry relative="1" as="geometry" />
        </mxCell>
        <mxCell id="99QW-NOI-0znvqQwYTCD-1" value="" style="ellipse;whiteSpace=wrap;html=1;aspect=fixed;fillColor=#d5e8d4;strokeColor=#82b366;" vertex="1" parent="1">
          <mxGeometry x="384" y="30" width="60" height="60" as="geometry" />
        </mxCell>
        <mxCell id="99QW-NOI-0znvqQwYTCD-32" style="edgeStyle=orthogonalEdgeStyle;rounded=0;orthogonalLoop=1;jettySize=auto;html=1;exitX=1;exitY=0.5;exitDx=0;exitDy=0;" edge="1" parent="1" source="99QW-NOI-0znvqQwYTCD-2" target="99QW-NOI-0znvqQwYTCD-31">
          <mxGeometry relative="1" as="geometry">
            <Array as="points">
              <mxPoint x="710" y="150" />
              <mxPoint x="710" y="750" />
              <mxPoint x="414" y="750" />
            </Array>
          </mxGeometry>
        </mxCell>
        <mxCell id="99QW-NOI-0znvqQwYTCD-2" value="Para Cont de 0 a 9" style="shape=hexagon;perimeter=hexagonPerimeter2;whiteSpace=wrap;html=1;fixedSize=1;fillColor=#f5f5f5;fontColor=#333333;strokeColor=#666666;" vertex="1" parent="1">
          <mxGeometry x="354" y="110" width="120" height="80" as="geometry" />
        </mxCell>
        <mxCell id="99QW-NOI-0znvqQwYTCD-8" style="edgeStyle=orthogonalEdgeStyle;rounded=0;orthogonalLoop=1;jettySize=auto;html=1;exitX=0.5;exitY=1;exitDx=0;exitDy=0;exitPerimeter=0;entryX=0.5;entryY=0;entryDx=0;entryDy=0;" edge="1" parent="1" source="99QW-NOI-0znvqQwYTCD-4" target="99QW-NOI-0znvqQwYTCD-7">
          <mxGeometry relative="1" as="geometry" />
        </mxCell>
        <mxCell id="99QW-NOI-0znvqQwYTCD-4" value="Num[Cont]" style="shape=card;whiteSpace=wrap;html=1;fillColor=#fff2cc;strokeColor=#d6b656;" vertex="1" parent="1">
          <mxGeometry x="379" y="210" width="70" height="70" as="geometry" />
        </mxCell>
        <mxCell id="99QW-NOI-0znvqQwYTCD-5" style="edgeStyle=orthogonalEdgeStyle;rounded=0;orthogonalLoop=1;jettySize=auto;html=1;exitX=0.5;exitY=1;exitDx=0;exitDy=0;entryX=0.5;entryY=0;entryDx=0;entryDy=0;entryPerimeter=0;" edge="1" parent="1" source="99QW-NOI-0znvqQwYTCD-2" target="99QW-NOI-0znvqQwYTCD-4">
          <mxGeometry relative="1" as="geometry" />
        </mxCell>
        <mxCell id="99QW-NOI-0znvqQwYTCD-20" style="edgeStyle=orthogonalEdgeStyle;rounded=0;orthogonalLoop=1;jettySize=auto;html=1;exitX=0.5;exitY=1;exitDx=0;exitDy=0;entryX=0.5;entryY=0;entryDx=0;entryDy=0;" edge="1" parent="1" source="99QW-NOI-0znvqQwYTCD-7" target="99QW-NOI-0znvqQwYTCD-16">
          <mxGeometry relative="1" as="geometry" />
        </mxCell>
        <mxCell id="99QW-NOI-0znvqQwYTCD-23" style="edgeStyle=orthogonalEdgeStyle;rounded=0;orthogonalLoop=1;jettySize=auto;html=1;exitX=1;exitY=0.5;exitDx=0;exitDy=0;entryX=0;entryY=0.5;entryDx=0;entryDy=0;" edge="1" parent="1" source="99QW-NOI-0znvqQwYTCD-7" target="99QW-NOI-0znvqQwYTCD-9">
          <mxGeometry relative="1" as="geometry" />
        </mxCell>
        <mxCell id="99QW-NOI-0znvqQwYTCD-7" value="Cont == 0" style="rhombus;whiteSpace=wrap;html=1;fillColor=#ffe6cc;strokeColor=#d79b00;" vertex="1" parent="1">
          <mxGeometry x="374" y="300" width="80" height="80" as="geometry" />
        </mxCell>
        <mxCell id="99QW-NOI-0znvqQwYTCD-47" style="edgeStyle=orthogonalEdgeStyle;rounded=0;orthogonalLoop=1;jettySize=auto;html=1;exitX=1;exitY=0.5;exitDx=0;exitDy=0;entryX=1;entryY=0.5;entryDx=0;entryDy=0;" edge="1" parent="1" source="99QW-NOI-0znvqQwYTCD-9" target="99QW-NOI-0znvqQwYTCD-12">
          <mxGeometry relative="1" as="geometry" />
        </mxCell>
        <mxCell id="99QW-NOI-0znvqQwYTCD-9" value="PMaiorNum = Cont&lt;div&gt;PMenorNum = Cont&lt;/div&gt;" style="rounded=0;whiteSpace=wrap;html=1;fillColor=#e1d5e7;strokeColor=#9673a6;" vertex="1" parent="1">
          <mxGeometry x="490" y="320" width="146" height="40" as="geometry" />
        </mxCell>
        <mxCell id="99QW-NOI-0znvqQwYTCD-30" style="edgeStyle=orthogonalEdgeStyle;rounded=0;orthogonalLoop=1;jettySize=auto;html=1;exitX=0.5;exitY=1;exitDx=0;exitDy=0;entryX=0;entryY=0.5;entryDx=0;entryDy=0;" edge="1" parent="1" source="99QW-NOI-0znvqQwYTCD-12" target="99QW-NOI-0znvqQwYTCD-2">
          <mxGeometry relative="1" as="geometry" />
        </mxCell>
        <mxCell id="99QW-NOI-0znvqQwYTCD-12" value="" style="ellipse;whiteSpace=wrap;html=1;aspect=fixed;fillColor=#ffe6cc;strokeColor=#d79b00;" vertex="1" parent="1">
          <mxGeometry x="394" y="680" width="40" height="40" as="geometry" />
        </mxCell>
        <mxCell id="99QW-NOI-0znvqQwYTCD-48" style="edgeStyle=orthogonalEdgeStyle;rounded=0;orthogonalLoop=1;jettySize=auto;html=1;exitX=1;exitY=0.5;exitDx=0;exitDy=0;entryX=1;entryY=0.5;entryDx=0;entryDy=0;" edge="1" parent="1" source="99QW-NOI-0znvqQwYTCD-15" target="99QW-NOI-0znvqQwYTCD-12">
          <mxGeometry relative="1" as="geometry" />
        </mxCell>
        <mxCell id="99QW-NOI-0znvqQwYTCD-15" value="PMaiorNum = Cont" style="rounded=0;whiteSpace=wrap;html=1;fillColor=#e1d5e7;strokeColor=#9673a6;" vertex="1" parent="1">
          <mxGeometry x="490" y="437.5" width="146" height="40" as="geometry" />
        </mxCell>
        <mxCell id="99QW-NOI-0znvqQwYTCD-22" style="edgeStyle=orthogonalEdgeStyle;rounded=0;orthogonalLoop=1;jettySize=auto;html=1;entryX=0.5;entryY=0;entryDx=0;entryDy=0;" edge="1" parent="1" source="99QW-NOI-0znvqQwYTCD-16" target="99QW-NOI-0znvqQwYTCD-21">
          <mxGeometry relative="1" as="geometry" />
        </mxCell>
        <mxCell id="99QW-NOI-0znvqQwYTCD-53" style="edgeStyle=orthogonalEdgeStyle;rounded=0;orthogonalLoop=1;jettySize=auto;html=1;exitX=1;exitY=0.5;exitDx=0;exitDy=0;entryX=0;entryY=0.5;entryDx=0;entryDy=0;" edge="1" parent="1" source="99QW-NOI-0znvqQwYTCD-16" target="99QW-NOI-0znvqQwYTCD-15">
          <mxGeometry relative="1" as="geometry" />
        </mxCell>
        <mxCell id="99QW-NOI-0znvqQwYTCD-16" value="Num[Cont] &amp;gt; Num[PMaiorNum]" style="rhombus;whiteSpace=wrap;html=1;fillColor=#ffe6cc;strokeColor=#d79b00;" vertex="1" parent="1">
          <mxGeometry x="356" y="395" width="116" height="125" as="geometry" />
        </mxCell>
        <mxCell id="99QW-NOI-0znvqQwYTCD-49" style="edgeStyle=orthogonalEdgeStyle;rounded=0;orthogonalLoop=1;jettySize=auto;html=1;exitX=1;exitY=0.5;exitDx=0;exitDy=0;entryX=1;entryY=0.5;entryDx=0;entryDy=0;" edge="1" parent="1" source="99QW-NOI-0znvqQwYTCD-19" target="99QW-NOI-0znvqQwYTCD-12">
          <mxGeometry relative="1" as="geometry" />
        </mxCell>
        <mxCell id="99QW-NOI-0znvqQwYTCD-19" value="&lt;div&gt;PMenorNum = Cont&lt;/div&gt;" style="rounded=0;whiteSpace=wrap;html=1;fillColor=#e1d5e7;strokeColor=#9673a6;" vertex="1" parent="1">
          <mxGeometry x="490" y="575" width="146" height="40" as="geometry" />
        </mxCell>
        <mxCell id="99QW-NOI-0znvqQwYTCD-25" style="edgeStyle=orthogonalEdgeStyle;rounded=0;orthogonalLoop=1;jettySize=auto;html=1;exitX=1;exitY=0.5;exitDx=0;exitDy=0;entryX=0;entryY=0.5;entryDx=0;entryDy=0;" edge="1" parent="1" source="99QW-NOI-0znvqQwYTCD-21" target="99QW-NOI-0znvqQwYTCD-19">
          <mxGeometry relative="1" as="geometry" />
        </mxCell>
        <mxCell id="99QW-NOI-0znvqQwYTCD-26" style="edgeStyle=orthogonalEdgeStyle;rounded=0;orthogonalLoop=1;jettySize=auto;html=1;exitX=0.5;exitY=1;exitDx=0;exitDy=0;entryX=0.5;entryY=0;entryDx=0;entryDy=0;" edge="1" parent="1" source="99QW-NOI-0znvqQwYTCD-21" target="99QW-NOI-0znvqQwYTCD-12">
          <mxGeometry relative="1" as="geometry" />
        </mxCell>
        <mxCell id="99QW-NOI-0znvqQwYTCD-21" value="Num[Cont] &amp;lt; Num[PMenorNum]" style="rhombus;whiteSpace=wrap;html=1;fillColor=#ffe6cc;strokeColor=#d79b00;" vertex="1" parent="1">
          <mxGeometry x="356" y="530" width="116" height="130" as="geometry" />
        </mxCell>
        <mxCell id="99QW-NOI-0znvqQwYTCD-34" style="edgeStyle=orthogonalEdgeStyle;rounded=0;orthogonalLoop=1;jettySize=auto;html=1;exitX=0.5;exitY=1;exitDx=0;exitDy=0;entryX=0.5;entryY=0;entryDx=0;entryDy=0;" edge="1" parent="1" source="99QW-NOI-0znvqQwYTCD-31" target="99QW-NOI-0znvqQwYTCD-33">
          <mxGeometry relative="1" as="geometry" />
        </mxCell>
        <mxCell id="99QW-NOI-0znvqQwYTCD-51" style="edgeStyle=orthogonalEdgeStyle;rounded=0;orthogonalLoop=1;jettySize=auto;html=1;exitX=1;exitY=0.5;exitDx=0;exitDy=0;entryX=0;entryY=0.5;entryDx=0;entryDy=0;" edge="1" parent="1" source="99QW-NOI-0znvqQwYTCD-31" target="99QW-NOI-0znvqQwYTCD-50">
          <mxGeometry relative="1" as="geometry" />
        </mxCell>
        <mxCell id="99QW-NOI-0znvqQwYTCD-31" value="Para Cont de 0 a 9" style="shape=hexagon;perimeter=hexagonPerimeter2;whiteSpace=wrap;html=1;fixedSize=1;fillColor=#f5f5f5;fontColor=#333333;strokeColor=#666666;" vertex="1" parent="1">
          <mxGeometry x="356" y="770" width="120" height="80" as="geometry" />
        </mxCell>
        <mxCell id="99QW-NOI-0znvqQwYTCD-36" style="edgeStyle=orthogonalEdgeStyle;rounded=0;orthogonalLoop=1;jettySize=auto;html=1;exitX=0.5;exitY=1;exitDx=0;exitDy=0;entryX=0.5;entryY=0;entryDx=0;entryDy=0;" edge="1" parent="1" source="99QW-NOI-0znvqQwYTCD-33" target="99QW-NOI-0znvqQwYTCD-35">
          <mxGeometry relative="1" as="geometry" />
        </mxCell>
        <mxCell id="99QW-NOI-0znvqQwYTCD-38" style="edgeStyle=orthogonalEdgeStyle;rounded=0;orthogonalLoop=1;jettySize=auto;html=1;exitX=1;exitY=0.5;exitDx=0;exitDy=0;entryX=0;entryY=0.5;entryDx=0;entryDy=0;" edge="1" parent="1" source="99QW-NOI-0znvqQwYTCD-33" target="99QW-NOI-0znvqQwYTCD-37">
          <mxGeometry relative="1" as="geometry" />
        </mxCell>
        <mxCell id="99QW-NOI-0znvqQwYTCD-33" value="Num[Cont] == MaiorNum" style="rhombus;whiteSpace=wrap;html=1;fillColor=#ffe6cc;strokeColor=#d79b00;" vertex="1" parent="1">
          <mxGeometry x="364" y="870" width="106" height="110" as="geometry" />
        </mxCell>
        <mxCell id="99QW-NOI-0znvqQwYTCD-40" style="edgeStyle=orthogonalEdgeStyle;rounded=0;orthogonalLoop=1;jettySize=auto;html=1;exitX=1;exitY=0.5;exitDx=0;exitDy=0;entryX=0;entryY=0.5;entryDx=0;entryDy=0;" edge="1" parent="1" source="99QW-NOI-0znvqQwYTCD-35" target="99QW-NOI-0znvqQwYTCD-39">
          <mxGeometry relative="1" as="geometry" />
        </mxCell>
        <mxCell id="99QW-NOI-0znvqQwYTCD-42" style="edgeStyle=orthogonalEdgeStyle;rounded=0;orthogonalLoop=1;jettySize=auto;html=1;exitX=0.5;exitY=1;exitDx=0;exitDy=0;entryX=0.5;entryY=0;entryDx=0;entryDy=0;" edge="1" parent="1" source="99QW-NOI-0znvqQwYTCD-35" target="99QW-NOI-0znvqQwYTCD-41">
          <mxGeometry relative="1" as="geometry" />
        </mxCell>
        <mxCell id="99QW-NOI-0znvqQwYTCD-35" value="Num[Cont] == MenorNum" style="rhombus;whiteSpace=wrap;html=1;fillColor=#ffe6cc;strokeColor=#d79b00;" vertex="1" parent="1">
          <mxGeometry x="364" y="1000" width="106" height="110" as="geometry" />
        </mxCell>
        <mxCell id="99QW-NOI-0znvqQwYTCD-43" style="edgeStyle=orthogonalEdgeStyle;rounded=0;orthogonalLoop=1;jettySize=auto;html=1;exitX=1;exitY=0.5;exitDx=0;exitDy=0;entryX=1;entryY=0.5;entryDx=0;entryDy=0;" edge="1" parent="1" source="99QW-NOI-0znvqQwYTCD-37" target="99QW-NOI-0znvqQwYTCD-41">
          <mxGeometry relative="1" as="geometry" />
        </mxCell>
        <mxCell id="99QW-NOI-0znvqQwYTCD-37" value="&quot; O maior nÃºmero Ã© &quot;MaiorNum&quot; na posiÃ§Ã£o &quot;Cont+1" style="shape=document;whiteSpace=wrap;html=1;boundedLbl=1;fillColor=#dae8fc;strokeColor=#6c8ebf;" vertex="1" parent="1">
          <mxGeometry x="490" y="885" width="120" height="80" as="geometry" />
        </mxCell>
        <mxCell id="99QW-NOI-0znvqQwYTCD-44" style="edgeStyle=orthogonalEdgeStyle;rounded=0;orthogonalLoop=1;jettySize=auto;html=1;exitX=1;exitY=0.5;exitDx=0;exitDy=0;entryX=1;entryY=0.5;entryDx=0;entryDy=0;" edge="1" parent="1" source="99QW-NOI-0znvqQwYTCD-39" target="99QW-NOI-0znvqQwYTCD-41">
          <mxGeometry relative="1" as="geometry" />
        </mxCell>
        <mxCell id="99QW-NOI-0znvqQwYTCD-39" value="&quot; O menor nÃºmero Ã© &quot;MenorNum&quot; na posiÃ§Ã£o &quot;Cont+1" style="shape=document;whiteSpace=wrap;html=1;boundedLbl=1;fillColor=#dae8fc;strokeColor=#6c8ebf;" vertex="1" parent="1">
          <mxGeometry x="490" y="1015" width="120" height="80" as="geometry" />
        </mxCell>
        <mxCell id="99QW-NOI-0znvqQwYTCD-46" style="edgeStyle=orthogonalEdgeStyle;rounded=0;orthogonalLoop=1;jettySize=auto;html=1;exitX=0;exitY=0.5;exitDx=0;exitDy=0;entryX=0;entryY=0.5;entryDx=0;entryDy=0;" edge="1" parent="1" source="99QW-NOI-0znvqQwYTCD-41" target="99QW-NOI-0znvqQwYTCD-31">
          <mxGeometry relative="1" as="geometry" />
        </mxCell>
        <mxCell id="99QW-NOI-0znvqQwYTCD-41" value="" style="ellipse;whiteSpace=wrap;html=1;aspect=fixed;fillColor=#ffe6cc;strokeColor=#d79b00;" vertex="1" parent="1">
          <mxGeometry x="397" y="1129" width="40" height="40" as="geometry" />
        </mxCell>
        <mxCell id="99QW-NOI-0znvqQwYTCD-50" value="" style="ellipse;whiteSpace=wrap;html=1;aspect=fixed;fillColor=#f8cecc;strokeColor=#b85450;" vertex="1" parent="1">
          <mxGeometry x="500" y="780" width="60" height="60" as="geometry" />
        </mxCell>
      </root>
    </mxGraphModel>
  </diagram>
</mxfile>
